<svg aria-hidden="true" style="position:absolute;width:0;height:0;overflow:hidden" xmlns="http://www.w3.org/2000/svg"><defs><symbol id="icon-shopping-cart" viewBox="0 0 32 32"><path stroke-linejoin="round" stroke-width="3" d="M12 29.32c-.74 0-1.34-.6-1.34-1.32 0-.74.6-1.34 1.34-1.34s1.32.6 1.32 1.34c0 .72-.58 1.32-1.32 1.32zM26.66 29.32c-.74 0-1.34-.6-1.34-1.32 0-.74.6-1.34 1.34-1.34.72 0 1.32.6 1.32 1.34 0 .72-.6 1.32-1.32 1.32z"/><path stroke-linejoin="round" stroke-linecap="round" stroke-width="3" d="M1.32 1.32h5.34l3.56 17.86c.12.62.46 1.16.94 1.56.5.38 1.1.6 1.74.58h12.96c.62.02 1.22-.2 1.72-.58.48-.4.82-.94.94-1.56L30.66 8H7.98"/></symbol><symbol id="icon-filter" viewBox="0 0 32 32"><path stroke-linejoin="round" stroke-width="3.429" d="m2.651 4 10.674 12.594v8.731l5.326 2.674V16.593L29.325 3.999H2.651z"/></symbol><symbol id="icon-search" viewBox="0 0 32 32"><path stroke-linejoin="round" stroke-width="3" d="M14.66 25.32C8.76 25.32 4 20.54 4 14.66 4 8.76 8.76 4 14.66 4c5.88 0 10.66 4.76 10.66 10.66 0 5.88-4.78 10.66-10.66 10.66z"/><path stroke-linejoin="round" stroke-linecap="round" stroke-width="3" d="m28 28-5.8-5.82"/></symbol><symbol id="icon-lightning" viewBox="0 0 32 32"><path stroke-linejoin="round" stroke-width="2.4" d="M5.456 16.912c-.464.56-.704.832-.704 1.072 0 .208.08.4.24.528.192.144.544.144 1.28.144H16l-1.344 10.672 11.872-14.256c.464-.56.704-.832.704-1.072a.66.66 0 0 0-.24-.528c-.192-.144-.544-.144-1.28-.144H16l1.328-10.672L5.456 16.912z"/></symbol><symbol id="icon-star" viewBox="0 0 32 32"><path d="m15.1 1.66-3.78 7.16c-.14.28-.4.48-.7.52l-7.98 1.38c-.8.14-1.1 1.1-.54 1.68l5.64 5.8c.22.24.32.54.26.84l-1.14 8.02c-.12.8.7 1.4 1.42 1.04l7.28-3.58c.26-.12.6-.12.86 0l7.28 3.58a.99.99 0 0 0 1.42-1.04l-1.14-8.02c-.06-.3.04-.6.26-.84l5.64-5.8a.994.994 0 0 0-.54-1.68l-7.98-1.38a.934.934 0 0 1-.7-.52l-3.78-7.16c-.38-.7-1.4-.7-1.78 0z"/><path d="m11.32 8.82 3.78-7.16c.38-.7 1.4-.7 1.78 0l3.78 7.16c.14.28.4.48.7.52l7.98 1.38c.8.14 1.1 1.1.54 1.68l-5.64 5.8c-.22.24-.32.54-.26.84l1.14 8.02c.12.8-.7 1.4-1.42 1.04l-7.28-3.58c-.26-.12-.6-.12-.86 0L8.28 28.1a.99.99 0 0 1-1.42-1.04L8 19.04c.06-.3-.04-.6-.26-.84L2.1 12.4a.994.994 0 0 1 .54-1.68l7.98-1.38c.3-.04.56-.24.7-.52zm2.14 1.12c-.5.94-1.4 1.58-2.44 1.76l-5.36.94 3.8 3.9c.74.76 1.06 1.8.92 2.84l-.78 5.4 4.9-2.4c.94-.48 2.04-.48 3 0l4.88 2.4-.78-5.4a3.39 3.39 0 0 1 .92-2.84l3.8-3.9-5.36-.94a3.411 3.411 0 0 1-2.44-1.76L16 5.14l-2.54 4.8z"/></symbol><symbol id="icon-phone" viewBox="0 0 32 32"><path stroke-linejoin="round" stroke-width="2.667" d="M29.333 26.56c0 .356-.089.729-.231 1.067-.16.338-.373.658-.64.907a2.962 2.962 0 0 1-.942.551c-.356.124-.729.16-1.102.142-4.107-.462-8.053-1.849-11.502-4.107a25.817 25.817 0 0 1-8-8A26.357 26.357 0 0 1 2.809 5.564a2.766 2.766 0 0 1 .142-1.084c.107-.356.302-.676.551-.96.249-.267.551-.48.889-.64a2.812 2.812 0 0 1 1.084-.213h4a2.592 2.592 0 0 1 1.76.64c.48.409.818.996.907 1.653.16 1.262.48 2.524.924 3.733.178.48.213.996.107 1.493s-.356.96-.711 1.333l-1.689 1.689a21.333 21.333 0 0 0 8 8l1.689-1.689a2.52 2.52 0 0 1 1.333-.711c.48-.124 1.013-.071 1.493.107 1.209.444 2.453.764 3.733.924.658.089 1.244.427 1.671.924s.64 1.138.64 1.796v4z"/></symbol><symbol id="icon-map-pin" viewBox="0 0 32 32"><path stroke-linejoin="round" stroke-width="2.667" d="M16 30.667s-12-8-12-17.333c0-3.2 1.262-6.24 3.502-8.498A12.076 12.076 0 0 1 16 1.334c3.164 0 6.222 1.262 8.48 3.502A12.062 12.062 0 0 1 28 13.334c0 9.333-12 17.333-12 17.333z"/><path stroke-linejoin="round" stroke-width="2.667" d="M16 17.333c-2.222 0-4-1.796-4-4 0-2.222 1.778-4 4-4 2.204 0 4 1.778 4 4 0 2.204-1.796 4-4 4z"/></symbol><symbol id="icon-facebook" viewBox="0 0 32 32"><path d="M19.52 4.64h.949v3.589H19.28c-.48 0-.96 0-1.2.24s-.24.48-.24 1.051v1.28h2.629v3.04H17.84v13.2h-4.08V13.76H11.6v-3.051h2.16V9.68c0-1.76.24-3.04.709-3.6.731-1.04 2.171-1.52 4.331-1.52.24.08.48.08.72.08z"/></symbol><symbol id="icon-instagram" viewBox="0 0 32 32"><path d="M28.709 10.754a9.03 9.03 0 0 0-.594-3.154 6.574 6.574 0 0 0-3.737-3.737 9.611 9.611 0 0 0-3.109-.594c-1.371-.057-1.806-.08-5.269-.08-3.474 0-3.92 0-5.28.08a9.643 9.643 0 0 0-3.109.594A6.574 6.574 0 0 0 3.874 7.6a9.036 9.036 0 0 0-.594 3.109c-.069 1.36-.08 1.794-.08 5.257 0 3.474 0 3.92.08 5.269a9.04 9.04 0 0 0 .594 3.109 6.542 6.542 0 0 0 3.737 3.737 9.367 9.367 0 0 0 3.109.629c1.371.069 1.806.091 5.28.091 3.463 0 3.909 0 5.269-.091a9.295 9.295 0 0 0 3.109-.583 6.56 6.56 0 0 0 3.737-3.749 9.218 9.218 0 0 0 .606-3.097c.057-1.371.08-1.794.08-5.269-.011-3.463-.011-3.909-.091-5.257zm-12.72 11.772c-3.634 0-6.571-2.937-6.571-6.56s2.937-6.56 6.571-6.56c3.623 0 6.571 2.937 6.571 6.56s-2.949 6.56-6.571 6.56zm6.834-11.84c-.857 0-1.531-.674-1.531-1.52s.674-1.531 1.531-1.531c.846 0 1.531.686 1.531 1.531s-.686 1.52-1.531 1.52z"/><path d="M19.989 15.966c0 2.217-1.794 4-4 4a3.99 3.99 0 0 1-4-4c0-2.206 1.783-4 4-4 2.206 0 4 1.794 4 4z"/></symbol><symbol id="icon-youtube" viewBox="0 0 32 32"><path d="M24.229 5.989c-1.36-.08-4.149-.16-8.4-.16h-.56c-4.08 0-6.8.08-8.16.24-1.84.16-3.109.64-3.84 1.28-.64.56-1.12 1.6-1.269 2.96-.091.88-.171 2.72-.171 5.52v.4c0 2.64.08 4.48.251 5.36.229 1.28.629 2.24 1.44 2.8.789.64 2.149 1.04 4.069 1.2 1.36.08 4.16.16 8.411.16h.56c4.069 0 6.789-.08 8.149-.24 1.851-.16 3.12-.64 3.851-1.28.629-.56 1.109-1.6 1.269-2.96.08-.88.171-2.72.171-5.52v-.4c0-2.64-.091-4.48-.251-5.36-.229-1.28-.64-2.24-1.44-2.8-.789-.64-2.16-1.04-4.08-1.2zm-3.12 9.84-8.8 5.28v-10.56l8.8 5.28z"/></symbol><symbol id="icon-x" viewBox="0 0 32 32"><path stroke-linejoin="round" stroke-linecap="round" stroke-width="2.667" d="M24 8 8 24M8 8l16 16"/></symbol><symbol id="icon-paragraph" viewBox="0 0 32 32"><path d="M0 2h32v4H0zm0 6h32v4H0zm0 6h32v4H0zm0 6h32v4H0zm0 6h32v4H0z"/></symbol><symbol id="icon-burger" viewBox="0 0 39 32"><path stroke-linejoin="round" stroke-linecap="round" stroke-width="2.462" d="M34.868 16.246H5.33M34.868 9.846H5.33M34.868 22.646H5.33"/></symbol><symbol id="icon-plus" viewBox="0 0 32 32"><path stroke-linejoin="round" stroke-linecap="round" stroke-width="2.88" d="M16 6.656v18.672M6.656 16h18.672"/></symbol><symbol id="icon-minus" viewBox="0 0 32 32"><path stroke-linejoin="round" stroke-linecap="round" stroke-width="2.057" d="M9.326 11.429h13.337"/></symbol><symbol id="icon-slider-left" viewBox="0 0 32 32"><path stroke-width=".727" d="M31.636 16c0 8.636-7.001 15.636-15.636 15.636S.364 24.635.364 16C.364 7.364 7.365.364 16 .364S31.636 7.365 31.636 16z"/><path d="M14.982 16.516c-.073-.073-.124-.153-.16-.24s-.058-.182-.058-.276c0-.102.022-.196.058-.284s.087-.167.16-.233l3.338-3.338a.883.883 0 0 0 .16-.233.723.723 0 0 0 .051-.276.739.739 0 0 0-.051-.284.917.917 0 0 0-.16-.233c-.138-.138-.32-.218-.516-.218s-.378.08-.509.218l-3.338 3.331c-.415.415-.64.967-.64 1.549 0 .575.225 1.127.64 1.542l3.338 3.338a.752.752 0 0 0 .509.211c.095 0 .189-.022.276-.058s.167-.087.24-.153c.065-.073.116-.153.16-.24a.723.723 0 0 0 .051-.276.739.739 0 0 0-.051-.284.917.917 0 0 0-.16-.233l-3.338-3.331z"/></symbol><symbol id="icon-slider-right" viewBox="0 0 32 32"><path stroke-width=".727" d="M31.636 16c0 8.636-7.001 15.636-15.636 15.636S.364 24.635.364 16C.364 7.364 7.365.364 16 .364S31.636 7.365 31.636 16z"/><path d="M17.011 16.516c.073-.073.124-.153.16-.24s.058-.182.058-.276c0-.102-.022-.196-.058-.284s-.087-.167-.16-.233l-3.338-3.338a.883.883 0 0 1-.16-.233.723.723 0 0 1-.051-.276c0-.102.015-.196.051-.284a.917.917 0 0 1 .16-.233.74.74 0 0 1 .516-.218c.196 0 .378.08.509.218l3.338 3.331c.415.415.64.967.64 1.549 0 .575-.225 1.127-.64 1.542l-3.338 3.338a.752.752 0 0 1-.509.211c-.095 0-.189-.022-.276-.058s-.167-.087-.24-.153a1.104 1.104 0 0 1-.16-.24.723.723 0 0 1-.051-.276c0-.102.015-.196.051-.284a.917.917 0 0 1 .16-.233l3.338-3.331z"/></symbol><symbol id="icon-slider-left-two" viewBox="0 0 32 32"><path stroke-width=".727" d="M31.636 16c0 8.636-7.001 15.636-15.636 15.636S.364 24.635.364 16C.364 7.364 7.365.364 16 .364S31.636 7.365 31.636 16z"/><path d="M12.073 16.516c-.073-.073-.124-.153-.16-.24s-.058-.182-.058-.276c0-.102.022-.196.058-.284s.087-.167.16-.233l3.338-3.338a.883.883 0 0 0 .16-.233.723.723 0 0 0 .051-.276.739.739 0 0 0-.051-.284.917.917 0 0 0-.16-.233c-.138-.138-.32-.218-.516-.218s-.378.08-.509.218l-3.338 3.331c-.415.415-.64.967-.64 1.549 0 .575.225 1.127.64 1.542l3.338 3.338a.752.752 0 0 0 .509.211c.095 0 .189-.022.276-.058s.167-.087.24-.153c.065-.073.116-.153.16-.24a.723.723 0 0 0 .051-.276.739.739 0 0 0-.051-.284.917.917 0 0 0-.16-.233l-3.338-3.331z"/><path d="M17.164 16.516c-.073-.073-.124-.153-.16-.24s-.058-.182-.058-.276c0-.102.022-.196.058-.284s.087-.167.16-.233l3.338-3.338a.883.883 0 0 0 .16-.233.723.723 0 0 0 .051-.276.739.739 0 0 0-.051-.284.917.917 0 0 0-.16-.233c-.138-.138-.32-.218-.516-.218s-.378.08-.509.218l-3.338 3.331c-.415.415-.64.967-.64 1.549 0 .575.225 1.127.64 1.542l3.338 3.338a.752.752 0 0 0 .509.211c.095 0 .189-.022.276-.058s.167-.087.24-.153c.065-.073.116-.153.16-.24a.723.723 0 0 0 .051-.276.739.739 0 0 0-.051-.284.917.917 0 0 0-.16-.233l-3.338-3.331z"/></symbol><symbol id="icon-slider-right-two" viewBox="0 0 32 32"><path stroke-width=".727" d="M31.636 16c0 8.636-7.001 15.636-15.636 15.636S.364 24.635.364 16C.364 7.364 7.365.364 16 .364S31.636 7.365 31.636 16z"/><path d="M19.92 16.516c.073-.073.124-.153.16-.24s.058-.182.058-.276c0-.102-.022-.196-.058-.284s-.087-.167-.16-.233l-3.338-3.338a.883.883 0 0 1-.16-.233.723.723 0 0 1-.051-.276c0-.102.015-.196.051-.284a.917.917 0 0 1 .16-.233.74.74 0 0 1 .516-.218c.196 0 .378.08.509.218l3.338 3.331c.415.415.64.967.64 1.549 0 .575-.225 1.127-.64 1.542l-3.338 3.338a.752.752 0 0 1-.509.211c-.095 0-.189-.022-.276-.058s-.167-.087-.24-.153a1.104 1.104 0 0 1-.16-.24.723.723 0 0 1-.051-.276c0-.102.015-.196.051-.284a.917.917 0 0 1 .16-.233l3.338-3.331z"/><path d="M14.829 16.516c.073-.073.124-.153.16-.24s.058-.182.058-.276c0-.102-.022-.196-.058-.284s-.087-.167-.16-.233l-3.338-3.338a.883.883 0 0 1-.16-.233.723.723 0 0 1-.051-.276c0-.102.015-.196.051-.284a.917.917 0 0 1 .16-.233.74.74 0 0 1 .516-.218c.196 0 .378.08.509.218l3.338 3.331c.415.415.64.967.64 1.549 0 .575-.225 1.127-.64 1.542l-3.338 3.338a.752.752 0 0 1-.509.211c-.095 0-.189-.022-.276-.058s-.167-.087-.24-.153a1.104 1.104 0 0 1-.16-.24.723.723 0 0 1-.051-.276c0-.102.015-.196.051-.284a.917.917 0 0 1 .16-.233l3.338-3.331z"/></symbol></defs></svg>