<svg aria-hidden="true" style="position: absolute; width: 0; height: 0; overflow: hidden;" version="1.1" xmlns="http://www.w3.org/2000/svg" xmlns:xlink="http://www.w3.org/1999/xlink">
<defs>
<symbol id="icon-reviews" viewBox="0 0 185 32">
<path fill="#ffc531" style="fill: var(--color1, #ffc531)" d="M13.422 3.253l-3.36 6.364c-0.124 0.249-0.356 0.427-0.622 0.462l-7.093 1.227c-0.711 0.124-0.978 0.978-0.48 1.493l5.013 5.156c0.196 0.213 0.284 0.48 0.231 0.747l-1.013 7.129c-0.107 0.711 0.622 1.244 1.262 0.924l6.471-3.182c0.231-0.107 0.533-0.107 0.764 0l6.471 3.182c0.64 0.32 1.369-0.213 1.262-0.924l-1.013-7.129c-0.053-0.267 0.036-0.533 0.231-0.747l5.013-5.156c0.498-0.516 0.231-1.369-0.48-1.493l-7.093-1.227c-0.267-0.036-0.498-0.213-0.622-0.462l-3.36-6.364c-0.338-0.622-1.244-0.622-1.582 0z"></path>
<path fill="#ffc531" style="fill: var(--color1, #ffc531)" d="M10.062 9.618l3.36-6.364c0.338-0.622 1.244-0.622 1.582 0l3.36 6.364c0.124 0.249 0.356 0.427 0.622 0.462l7.093 1.227c0.711 0.124 0.978 0.978 0.48 1.493l-5.013 5.156c-0.196 0.213-0.284 0.48-0.231 0.747l1.013 7.129c0.107 0.711-0.622 1.244-1.262 0.924l-6.471-3.182c-0.231-0.107-0.533-0.107-0.764 0l-6.471 3.182c-0.64 0.32-1.369-0.213-1.262-0.924l1.013-7.129c0.053-0.267-0.036-0.533-0.231-0.747l-5.013-5.156c-0.498-0.516-0.231-1.369 0.48-1.493l7.093-1.227c0.267-0.036 0.498-0.213 0.622-0.462zM11.964 10.613c-0.444 0.836-1.244 1.404-2.169 1.564l-4.764 0.836 3.378 3.467c0.658 0.676 0.942 1.6 0.818 2.524l-0.693 4.8 4.356-2.133c0.836-0.427 1.813-0.427 2.667 0l4.338 2.133-0.693-4.8c-0.124-0.924 0.16-1.849 0.818-2.524l3.378-3.467-4.764-0.836c-0.924-0.16-1.724-0.729-2.169-1.564l-2.24-4.267-2.258 4.267z"></path>
<path fill="#000" style="fill: var(--color2, #000)" opacity="0.2" d="M10.062 9.618l3.36-6.364c0.338-0.622 1.244-0.622 1.582 0l3.36 6.364c0.124 0.249 0.356 0.427 0.622 0.462l7.093 1.227c0.711 0.124 0.978 0.978 0.48 1.493l-5.013 5.156c-0.196 0.213-0.284 0.48-0.231 0.747l1.013 7.129c0.107 0.711-0.622 1.244-1.262 0.924l-6.471-3.182c-0.231-0.107-0.533-0.107-0.764 0l-6.471 3.182c-0.64 0.32-1.369-0.213-1.262-0.924l1.013-7.129c0.053-0.267-0.036-0.533-0.231-0.747l-5.013-5.156c-0.498-0.516-0.231-1.369 0.48-1.493l7.093-1.227c0.267-0.036 0.498-0.213 0.622-0.462zM11.964 10.613c-0.444 0.836-1.244 1.404-2.169 1.564l-4.764 0.836 3.378 3.467c0.658 0.676 0.942 1.6 0.818 2.524l-0.693 4.8 4.356-2.133c0.836-0.427 1.813-0.427 2.667 0l4.338 2.133-0.693-4.8c-0.124-0.924 0.16-1.849 0.818-2.524l3.378-3.467-4.764-0.836c-0.924-0.16-1.724-0.729-2.169-1.564l-2.24-4.267-2.258 4.267z"></path>
<path fill="#ffc531" style="fill: var(--color1, #ffc531)" d="M45.422 3.253l-3.36 6.364c-0.124 0.249-0.356 0.427-0.622 0.462l-7.093 1.227c-0.711 0.124-0.978 0.978-0.48 1.493l5.013 5.156c0.196 0.213 0.284 0.48 0.231 0.747l-1.013 7.129c-0.107 0.711 0.622 1.244 1.262 0.924l6.471-3.182c0.231-0.107 0.533-0.107 0.764 0l6.471 3.182c0.64 0.32 1.369-0.213 1.262-0.924l-1.013-7.129c-0.053-0.267 0.036-0.533 0.231-0.747l5.013-5.156c0.498-0.516 0.231-1.369-0.48-1.493l-7.093-1.227c-0.267-0.036-0.498-0.213-0.622-0.462l-3.36-6.364c-0.338-0.622-1.244-0.622-1.582 0z"></path>
<path fill="#ffc531" style="fill: var(--color1, #ffc531)" d="M42.062 9.618l3.36-6.364c0.338-0.622 1.244-0.622 1.582 0l3.36 6.364c0.124 0.249 0.356 0.427 0.622 0.462l7.093 1.227c0.711 0.124 0.978 0.978 0.48 1.493l-5.013 5.156c-0.196 0.213-0.284 0.48-0.231 0.747l1.013 7.129c0.107 0.711-0.622 1.244-1.262 0.924l-6.471-3.182c-0.231-0.107-0.533-0.107-0.764 0l-6.471 3.182c-0.64 0.32-1.369-0.213-1.262-0.924l1.013-7.129c0.053-0.267-0.036-0.533-0.231-0.747l-5.013-5.156c-0.498-0.516-0.231-1.369 0.48-1.493l7.093-1.227c0.267-0.036 0.498-0.213 0.622-0.462zM43.964 10.613c-0.444 0.836-1.244 1.404-2.169 1.564l-4.764 0.836 3.378 3.467c0.658 0.676 0.942 1.6 0.818 2.524l-0.693 4.8 4.356-2.133c0.836-0.427 1.813-0.427 2.667 0l4.338 2.133-0.693-4.8c-0.124-0.924 0.16-1.849 0.818-2.524l3.378-3.467-4.764-0.836c-0.924-0.16-1.724-0.729-2.169-1.564l-2.24-4.267-2.258 4.267z"></path>
<path fill="#ffc531" style="fill: var(--color1, #ffc531)" d="M77.422 3.253l-3.36 6.364c-0.124 0.249-0.356 0.427-0.622 0.462l-7.093 1.227c-0.711 0.124-0.978 0.978-0.48 1.493l5.013 5.156c0.196 0.213 0.284 0.48 0.231 0.747l-1.013 7.129c-0.107 0.711 0.622 1.244 1.262 0.924l6.471-3.182c0.231-0.107 0.533-0.107 0.764 0l6.471 3.182c0.64 0.32 1.369-0.213 1.262-0.924l-1.013-7.129c-0.053-0.267 0.036-0.533 0.231-0.747l5.013-5.156c0.498-0.516 0.231-1.369-0.48-1.493l-7.093-1.227c-0.267-0.036-0.498-0.213-0.622-0.462l-3.36-6.364c-0.338-0.622-1.244-0.622-1.582 0z"></path>
<path fill="#ffc531" style="fill: var(--color1, #ffc531)" d="M74.062 9.618l3.36-6.364c0.338-0.622 1.244-0.622 1.582 0l3.36 6.364c0.124 0.249 0.356 0.427 0.622 0.462l7.093 1.227c0.711 0.124 0.978 0.978 0.48 1.493l-5.013 5.156c-0.196 0.213-0.284 0.48-0.231 0.747l1.013 7.129c0.107 0.711-0.622 1.244-1.262 0.924l-6.471-3.182c-0.231-0.107-0.533-0.107-0.764 0l-6.471 3.182c-0.64 0.32-1.369-0.213-1.262-0.924l1.013-7.129c0.053-0.267-0.036-0.533-0.231-0.747l-5.013-5.156c-0.498-0.516-0.231-1.369 0.48-1.493l7.093-1.227c0.267-0.036 0.498-0.213 0.622-0.462zM75.964 10.613c-0.444 0.836-1.244 1.404-2.169 1.564l-4.764 0.836 3.378 3.467c0.658 0.676 0.942 1.6 0.818 2.524l-0.693 4.8 4.356-2.133c0.836-0.427 1.813-0.427 2.667 0l4.338 2.133-0.693-4.8c-0.124-0.924 0.16-1.849 0.818-2.524l3.378-3.467-4.764-0.836c-0.924-0.16-1.724-0.729-2.169-1.564l-2.24-4.267-2.258 4.267z"></path>
<path fill="#ffc531" style="fill: var(--color1, #ffc531)" d="M109.422 3.253l-3.36 6.364c-0.124 0.249-0.356 0.427-0.622 0.462l-7.093 1.227c-0.711 0.124-0.978 0.978-0.48 1.493l5.013 5.156c0.196 0.213 0.284 0.48 0.231 0.747l-1.013 7.129c-0.107 0.711 0.622 1.244 1.262 0.924l6.471-3.182c0.231-0.107 0.533-0.107 0.764 0l6.471 3.182c0.64 0.32 1.369-0.213 1.262-0.924l-1.013-7.129c-0.053-0.267 0.036-0.533 0.231-0.747l5.013-5.156c0.498-0.516 0.231-1.369-0.48-1.493l-7.093-1.227c-0.267-0.036-0.498-0.213-0.622-0.462l-3.36-6.364c-0.338-0.622-1.244-0.622-1.582 0z"></path>
<path fill="#ffc531" style="fill: var(--color1, #ffc531)" d="M106.062 9.618l3.36-6.364c0.338-0.622 1.244-0.622 1.582 0l3.36 6.364c0.124 0.249 0.356 0.427 0.622 0.462l7.093 1.227c0.711 0.124 0.978 0.978 0.48 1.493l-5.013 5.156c-0.196 0.213-0.284 0.48-0.231 0.747l1.013 7.129c0.107 0.711-0.622 1.244-1.262 0.924l-6.471-3.182c-0.231-0.107-0.533-0.107-0.764 0l-6.471 3.182c-0.64 0.32-1.369-0.213-1.262-0.924l1.013-7.129c0.053-0.267-0.036-0.533-0.231-0.747l-5.013-5.156c-0.498-0.516-0.231-1.369 0.48-1.493l7.093-1.227c0.267-0.036 0.498-0.213 0.622-0.462zM107.964 10.613c-0.444 0.836-1.244 1.404-2.169 1.564l-4.764 0.836 3.378 3.467c0.658 0.676 0.942 1.6 0.818 2.524l-0.693 4.8 4.356-2.133c0.836-0.427 1.813-0.427 2.667 0l4.338 2.133-0.693-4.8c-0.124-0.924 0.16-1.849 0.818-2.524l3.378-3.467-4.764-0.836c-0.924-0.16-1.724-0.729-2.169-1.564l-2.24-4.267-2.258 4.267z"></path>
<path fill="#f1f1f1" style="fill: var(--color3, #f1f1f1)" d="M141.422 3.253l-3.36 6.364c-0.124 0.249-0.356 0.427-0.622 0.462l-7.093 1.227c-0.711 0.124-0.978 0.978-0.48 1.493l5.013 5.156c0.196 0.213 0.284 0.48 0.231 0.747l-1.013 7.129c-0.107 0.711 0.622 1.244 1.262 0.924l6.471-3.182c0.231-0.107 0.533-0.107 0.764 0l6.471 3.182c0.64 0.32 1.369-0.213 1.262-0.924l-1.013-7.129c-0.053-0.267 0.036-0.533 0.231-0.747l5.013-5.156c0.498-0.516 0.231-1.369-0.48-1.493l-7.093-1.227c-0.267-0.036-0.498-0.213-0.622-0.462l-3.36-6.364c-0.338-0.622-1.244-0.622-1.582 0z"></path>
<path fill="#f1f1f1" style="fill: var(--color3, #f1f1f1)" d="M138.062 9.618l3.36-6.364c0.338-0.622 1.244-0.622 1.582 0l3.36 6.364c0.124 0.249 0.356 0.427 0.622 0.462l7.093 1.227c0.711 0.124 0.978 0.978 0.48 1.493l-5.013 5.156c-0.196 0.213-0.284 0.48-0.231 0.747l1.013 7.129c0.107 0.711-0.622 1.244-1.262 0.924l-6.471-3.182c-0.231-0.107-0.533-0.107-0.764 0l-6.471 3.182c-0.64 0.32-1.369-0.213-1.262-0.924l1.013-7.129c0.053-0.267-0.036-0.533-0.231-0.747l-5.013-5.156c-0.498-0.516-0.231-1.369 0.48-1.493l7.093-1.227c0.267-0.036 0.498-0.213 0.622-0.462zM139.964 10.613c-0.444 0.836-1.244 1.404-2.169 1.564l-4.764 0.836 3.378 3.467c0.658 0.676 0.942 1.6 0.818 2.524l-0.693 4.8 4.356-2.133c0.836-0.427 1.813-0.427 2.667 0l4.338 2.133-0.693-4.8c-0.124-0.924 0.16-1.849 0.818-2.524l3.378-3.467-4.764-0.836c-0.924-0.16-1.724-0.729-2.169-1.564l-2.24-4.267-2.258 4.267z"></path>
<path fill="#1d1e21" style="fill: var(--color4, #1d1e21)" d="M177.049 21.351h-8.587v-2.204l7.822-12.373h3.36v12.249h2.4v2.329h-2.4v3.538h-2.596v-3.538zM171.324 19.022h5.742v-8.996h-0.142l-5.6 8.853v0.142z"></path>
</symbol>
<symbol id="icon-shopping-cart" viewBox="0 0 32 32">
<path stroke-linejoin="round" stroke-linecap="butt" stroke-miterlimit="4" stroke-width="3" d="M12 29.32c-0.74 0-1.34-0.6-1.34-1.32 0-0.74 0.6-1.34 1.34-1.34s1.32 0.6 1.32 1.34c0 0.72-0.58 1.32-1.32 1.32z"></path>
<path stroke-linejoin="round" stroke-linecap="butt" stroke-miterlimit="4" stroke-width="3" d="M26.66 29.32c-0.74 0-1.34-0.6-1.34-1.32 0-0.74 0.6-1.34 1.34-1.34 0.72 0 1.32 0.6 1.32 1.34 0 0.72-0.6 1.32-1.32 1.32z"></path>
<path stroke-linejoin="round" stroke-linecap="round" stroke-miterlimit="4" stroke-width="3" d="M1.32 1.32h5.34l3.56 17.86c0.12 0.62 0.46 1.16 0.94 1.56 0.5 0.38 1.1 0.6 1.74 0.58h12.96c0.62 0.020 1.22-0.2 1.72-0.58 0.48-0.4 0.82-0.94 0.94-1.56l2.14-11.18h-22.68"></path>
</symbol>
<symbol id="icon-filter" viewBox="0 0 32 32">
<path stroke-linejoin="round" stroke-linecap="butt" stroke-miterlimit="4" stroke-width="3.4286" d="M2.651 4l10.674 12.594v8.731l5.326 2.674v-11.406l10.674-12.594h-26.674z"></path>
</symbol>
<symbol id="icon-search" viewBox="0 0 32 32">
<path stroke-linejoin="round" stroke-linecap="butt" stroke-miterlimit="4" stroke-width="3" d="M14.66 25.32c-5.9 0-10.66-4.78-10.66-10.66 0-5.9 4.76-10.66 10.66-10.66 5.88 0 10.66 4.76 10.66 10.66 0 5.88-4.78 10.66-10.66 10.66z"></path>
<path stroke-linejoin="round" stroke-linecap="round" stroke-miterlimit="4" stroke-width="3" d="M28 28l-5.8-5.82"></path>
</symbol>
<symbol id="icon-lightning" viewBox="0 0 32 32">
<path stroke-linejoin="round" stroke-linecap="butt" stroke-miterlimit="4" stroke-width="2.4" d="M5.456 16.912c-0.464 0.56-0.704 0.832-0.704 1.072 0 0.208 0.080 0.4 0.24 0.528 0.192 0.144 0.544 0.144 1.28 0.144h9.728l-1.344 10.672 11.872-14.256c0.464-0.56 0.704-0.832 0.704-1.072 0-0.208-0.080-0.4-0.24-0.528-0.192-0.144-0.544-0.144-1.28-0.144h-9.712l1.328-10.672-11.872 14.256z"></path>
</symbol>
<symbol id="icon-star" viewBox="0 0 32 32">
<path d="M15.1 1.66l-3.78 7.16c-0.14 0.28-0.4 0.48-0.7 0.52l-7.98 1.38c-0.8 0.14-1.1 1.1-0.54 1.68l5.64 5.8c0.22 0.24 0.32 0.54 0.26 0.84l-1.14 8.020c-0.12 0.8 0.7 1.4 1.42 1.040l7.28-3.58c0.26-0.12 0.6-0.12 0.86 0l7.28 3.58c0.72 0.36 1.54-0.24 1.42-1.040l-1.14-8.020c-0.060-0.3 0.040-0.6 0.26-0.84l5.64-5.8c0.56-0.58 0.26-1.54-0.54-1.68l-7.98-1.38c-0.3-0.040-0.56-0.24-0.7-0.52l-3.78-7.16c-0.38-0.7-1.4-0.7-1.78 0z"></path>
<path d="M11.32 8.82l3.78-7.16c0.38-0.7 1.4-0.7 1.78 0l3.78 7.16c0.14 0.28 0.4 0.48 0.7 0.52l7.98 1.38c0.8 0.14 1.1 1.1 0.54 1.68l-5.64 5.8c-0.22 0.24-0.32 0.54-0.26 0.84l1.14 8.020c0.12 0.8-0.7 1.4-1.42 1.040l-7.28-3.58c-0.26-0.12-0.6-0.12-0.86 0l-7.28 3.58c-0.72 0.36-1.54-0.24-1.42-1.040l1.14-8.020c0.060-0.3-0.040-0.6-0.26-0.84l-5.64-5.8c-0.56-0.58-0.26-1.54 0.54-1.68l7.98-1.38c0.3-0.040 0.56-0.24 0.7-0.52zM13.46 9.94c-0.5 0.94-1.4 1.58-2.44 1.76l-5.36 0.94 3.8 3.9c0.74 0.76 1.060 1.8 0.92 2.84l-0.78 5.4 4.9-2.4c0.94-0.48 2.040-0.48 3 0l4.88 2.4-0.78-5.4c-0.14-1.040 0.18-2.080 0.92-2.84l3.8-3.9-5.36-0.94c-1.040-0.18-1.94-0.82-2.44-1.76l-2.52-4.8-2.54 4.8z"></path>
</symbol>
<symbol id="icon-phone" viewBox="0 0 32 32">
<path stroke-linejoin="round" stroke-linecap="butt" stroke-miterlimit="4" stroke-width="2.6667" d="M29.333 26.56c0 0.356-0.089 0.729-0.231 1.067-0.16 0.338-0.373 0.658-0.64 0.907-0.284 0.249-0.604 0.427-0.942 0.551-0.356 0.124-0.729 0.16-1.102 0.142-4.107-0.462-8.053-1.849-11.502-4.107-3.236-2.044-5.956-4.782-8-8-2.258-3.467-3.662-7.431-4.107-11.556-0.018-0.373 0.018-0.747 0.142-1.084 0.107-0.356 0.302-0.676 0.551-0.96 0.249-0.267 0.551-0.48 0.889-0.64 0.338-0.142 0.711-0.213 1.084-0.213h4c0.64-0.018 1.262 0.213 1.76 0.64 0.48 0.409 0.818 0.996 0.907 1.653 0.16 1.262 0.48 2.524 0.924 3.733 0.178 0.48 0.213 0.996 0.107 1.493s-0.356 0.96-0.711 1.333l-1.689 1.689c1.902 3.342 4.658 6.098 8 8l1.689-1.689c0.373-0.373 0.836-0.622 1.333-0.711 0.48-0.124 1.013-0.071 1.493 0.107 1.209 0.444 2.453 0.764 3.733 0.924 0.658 0.089 1.244 0.427 1.671 0.924s0.64 1.138 0.64 1.796v4z"></path>
</symbol>
<symbol id="icon-map-pin" viewBox="0 0 32 32">
<path stroke-linejoin="round" stroke-linecap="butt" stroke-miterlimit="4" stroke-width="2.6667" d="M16 30.667c0 0-12-8-12-17.333 0-3.2 1.262-6.24 3.502-8.498 2.258-2.24 5.316-3.502 8.498-3.502 3.164 0 6.222 1.262 8.48 3.502 2.24 2.258 3.52 5.298 3.52 8.498 0 9.333-12 17.333-12 17.333z"></path>
<path stroke-linejoin="round" stroke-linecap="butt" stroke-miterlimit="4" stroke-width="2.6667" d="M16 17.333c-2.222 0-4-1.796-4-4 0-2.222 1.778-4 4-4 2.204 0 4 1.778 4 4 0 2.204-1.796 4-4 4z"></path>
</symbol>
<symbol id="icon-facebook" viewBox="0 0 32 32">
<path d="M19.52 4.64c0.24 0 0.48 0 0.949 0v3.589c-0.229 0-0.709 0-1.189 0s-0.96 0-1.2 0.24c-0.24 0.24-0.24 0.48-0.24 1.051 0 0.48 0 0.8 0 1.28h2.629v3.040h-2.629v13.2h-4.080v-13.28h-2.16v-3.051h2.16v-1.029c0-1.76 0.24-3.040 0.709-3.6 0.731-1.040 2.171-1.52 4.331-1.52 0.24 0.080 0.48 0.080 0.72 0.080z"></path>
</symbol>
<symbol id="icon-instagram" viewBox="0 0 32 32">
<path d="M28.709 10.754c-0.011-1.074-0.206-2.149-0.594-3.154-0.663-1.714-2.023-3.063-3.737-3.737-0.994-0.366-2.046-0.571-3.109-0.594-1.371-0.057-1.806-0.080-5.269-0.080-3.474 0-3.92 0-5.28 0.080-1.063 0.023-2.114 0.229-3.109 0.594-1.714 0.674-3.074 2.023-3.737 3.737-0.377 0.994-0.583 2.046-0.594 3.109-0.069 1.36-0.080 1.794-0.080 5.257 0 3.474 0 3.92 0.080 5.269 0.011 1.063 0.217 2.114 0.594 3.109 0.663 1.714 2.023 3.074 3.737 3.737 0.994 0.377 2.046 0.606 3.109 0.629 1.371 0.069 1.806 0.091 5.28 0.091 3.463 0 3.909 0 5.269-0.091 1.063-0.011 2.114-0.217 3.109-0.583 1.714-0.674 3.074-2.023 3.737-3.749 0.377-0.983 0.583-2.034 0.606-3.097 0.057-1.371 0.080-1.794 0.080-5.269-0.011-3.463-0.011-3.909-0.091-5.257zM15.989 22.526c-3.634 0-6.571-2.937-6.571-6.56s2.937-6.56 6.571-6.56c3.623 0 6.571 2.937 6.571 6.56s-2.949 6.56-6.571 6.56zM22.823 10.686c-0.857 0-1.531-0.674-1.531-1.52s0.674-1.531 1.531-1.531c0.846 0 1.531 0.686 1.531 1.531s-0.686 1.52-1.531 1.52z"></path>
<path d="M19.989 15.966c0 2.217-1.794 4-4 4-2.217 0-4-1.783-4-4 0-2.206 1.783-4 4-4 2.206 0 4 1.794 4 4z"></path>
</symbol>
<symbol id="icon-youtube" viewBox="0 0 32 32">
<path d="M24.229 5.989c-1.36-0.080-4.149-0.16-8.4-0.16h-0.56c-4.080 0-6.8 0.080-8.16 0.24-1.84 0.16-3.109 0.64-3.84 1.28-0.64 0.56-1.12 1.6-1.269 2.96-0.091 0.88-0.171 2.72-0.171 5.52v0.4c0 2.64 0.080 4.48 0.251 5.36 0.229 1.28 0.629 2.24 1.44 2.8 0.789 0.64 2.149 1.040 4.069 1.2 1.36 0.080 4.16 0.16 8.411 0.16h0.56c4.069 0 6.789-0.080 8.149-0.24 1.851-0.16 3.12-0.64 3.851-1.28 0.629-0.56 1.109-1.6 1.269-2.96 0.080-0.88 0.171-2.72 0.171-5.52v-0.4c0-2.64-0.091-4.48-0.251-5.36-0.229-1.28-0.64-2.24-1.44-2.8-0.789-0.64-2.16-1.040-4.080-1.2zM21.109 15.829l-8.8 5.28v-10.56l8.8 5.28z"></path>
</symbol>
<symbol id="icon-x" viewBox="0 0 32 32">
<path stroke-linejoin="round" stroke-linecap="round" stroke-miterlimit="4" stroke-width="2.6667" d="M24 8l-16 16"></path>
<path stroke-linejoin="round" stroke-linecap="round" stroke-miterlimit="4" stroke-width="2.6667" d="M8 8l16 16"></path>
</symbol>
<symbol id="icon-paragraph" viewBox="0 0 32 32">
<path d="M0 2h32v4h-32zM0 8h32v4h-32zM0 14h32v4h-32zM0 20h32v4h-32zM0 26h32v4h-32z"></path>
</symbol>
</defs>
</svg>
