<svg aria-hidden="true" style="position: absolute; width: 0; height: 0; overflow: hidden;" version="1.1" xmlns="http://www.w3.org/2000/svg" xmlns:xlink="http://www.w3.org/1999/xlink">
<defs>
<symbol id="icon-reviews" viewBox="0 0 185 32">
<path fill="#ffc531" style="fill: var(--color1, #ffc531)" d="M13.422 3.253l-3.36 6.364c-0.124 0.249-0.356 0.427-0.622 0.462l-7.093 1.227c-0.711 0.124-0.978 0.978-0.48 1.493l5.013 5.156c0.196 0.213 0.284 0.48 0.231 0.747l-1.013 7.129c-0.107 0.711 0.622 1.244 1.262 0.924l6.471-3.182c0.231-0.107 0.533-0.107 0.764 0l6.471 3.182c0.64 0.32 1.369-0.213 1.262-0.924l-1.013-7.129c-0.053-0.267 0.036-0.533 0.231-0.747l5.013-5.156c0.498-0.516 0.231-1.369-0.48-1.493l-7.093-1.227c-0.267-0.036-0.498-0.213-0.622-0.462l-3.36-6.364c-0.338-0.622-1.244-0.622-1.582 0z"></path>
<path fill="#ffc531" style="fill: var(--color1, #ffc531)" d="M10.062 9.618l3.36-6.364c0.338-0.622 1.244-0.622 1.582 0l3.36 6.364c0.124 0.249 0.356 0.427 0.622 0.462l7.093 1.227c0.711 0.124 0.978 0.978 0.48 1.493l-5.013 5.156c-0.196 0.213-0.284 0.48-0.231 0.747l1.013 7.129c0.107 0.711-0.622 1.244-1.262 0.924l-6.471-3.182c-0.231-0.107-0.533-0.107-0.764 0l-6.471 3.182c-0.64 0.32-1.369-0.213-1.262-0.924l1.013-7.129c0.053-0.267-0.036-0.533-0.231-0.747l-5.013-5.156c-0.498-0.516-0.231-1.369 0.48-1.493l7.093-1.227c0.267-0.036 0.498-0.213 0.622-0.462zM11.964 10.613c-0.444 0.836-1.244 1.404-2.169 1.564l-4.764 0.836 3.378 3.467c0.658 0.676 0.942 1.6 0.818 2.524l-0.693 4.8 4.356-2.133c0.836-0.427 1.813-0.427 2.667 0l4.338 2.133-0.693-4.8c-0.124-0.924 0.16-1.849 0.818-2.524l3.378-3.467-4.764-0.836c-0.924-0.16-1.724-0.729-2.169-1.564l-2.24-4.267-2.258 4.267z"></path>
<path fill="#000" style="fill: var(--color2, #000)" opacity="0.2" d="M10.062 9.618l3.36-6.364c0.338-0.622 1.244-0.622 1.582 0l3.36 6.364c0.124 0.249 0.356 0.427 0.622 0.462l7.093 1.227c0.711 0.124 0.978 0.978 0.48 1.493l-5.013 5.156c-0.196 0.213-0.284 0.48-0.231 0.747l1.013 7.129c0.107 0.711-0.622 1.244-1.262 0.924l-6.471-3.182c-0.231-0.107-0.533-0.107-0.764 0l-6.471 3.182c-0.64 0.32-1.369-0.213-1.262-0.924l1.013-7.129c0.053-0.267-0.036-0.533-0.231-0.747l-5.013-5.156c-0.498-0.516-0.231-1.369 0.48-1.493l7.093-1.227c0.267-0.036 0.498-0.213 0.622-0.462zM11.964 10.613c-0.444 0.836-1.244 1.404-2.169 1.564l-4.764 0.836 3.378 3.467c0.658 0.676 0.942 1.6 0.818 2.524l-0.693 4.8 4.356-2.133c0.836-0.427 1.813-0.427 2.667 0l4.338 2.133-0.693-4.8c-0.124-0.924 0.16-1.849 0.818-2.524l3.378-3.467-4.764-0.836c-0.924-0.16-1.724-0.729-2.169-1.564l-2.24-4.267-2.258 4.267z"></path>
<path fill="#ffc531" style="fill: var(--color1, #ffc531)" d="M45.422 3.253l-3.36 6.364c-0.124 0.249-0.356 0.427-0.622 0.462l-7.093 1.227c-0.711 0.124-0.978 0.978-0.48 1.493l5.013 5.156c0.196 0.213 0.284 0.48 0.231 0.747l-1.013 7.129c-0.107 0.711 0.622 1.244 1.262 0.924l6.471-3.182c0.231-0.107 0.533-0.107 0.764 0l6.471 3.182c0.64 0.32 1.369-0.213 1.262-0.924l-1.013-7.129c-0.053-0.267 0.036-0.533 0.231-0.747l5.013-5.156c0.498-0.516 0.231-1.369-0.48-1.493l-7.093-1.227c-0.267-0.036-0.498-0.213-0.622-0.462l-3.36-6.364c-0.338-0.622-1.244-0.622-1.582 0z"></path>
<path fill="#ffc531" style="fill: var(--color1, #ffc531)" d="M42.062 9.618l3.36-6.364c0.338-0.622 1.244-0.622 1.582 0l3.36 6.364c0.124 0.249 0.356 0.427 0.622 0.462l7.093 1.227c0.711 0.124 0.978 0.978 0.48 1.493l-5.013 5.156c-0.196 0.213-0.284 0.48-0.231 0.747l1.013 7.129c0.107 0.711-0.622 1.244-1.262 0.924l-6.471-3.182c-0.231-0.107-0.533-0.107-0.764 0l-6.471 3.182c-0.64 0.32-1.369-0.213-1.262-0.924l1.013-7.129c0.053-0.267-0.036-0.533-0.231-0.747l-5.013-5.156c-0.498-0.516-0.231-1.369 0.48-1.493l7.093-1.227c0.267-0.036 0.498-0.213 0.622-0.462zM43.964 10.613c-0.444 0.836-1.244 1.404-2.169 1.564l-4.764 0.836 3.378 3.467c0.658 0.676 0.942 1.6 0.818 2.524l-0.693 4.8 4.356-2.133c0.836-0.427 1.813-0.427 2.667 0l4.338 2.133-0.693-4.8c-0.124-0.924 0.16-1.849 0.818-2.524l3.378-3.467-4.764-0.836c-0.924-0.16-1.724-0.729-2.169-1.564l-2.24-4.267-2.258 4.267z"></path>
<path fill="#ffc531" style="fill: var(--color1, #ffc531)" d="M77.422 3.253l-3.36 6.364c-0.124 0.249-0.356 0.427-0.622 0.462l-7.093 1.227c-0.711 0.124-0.978 0.978-0.48 1.493l5.013 5.156c0.196 0.213 0.284 0.48 0.231 0.747l-1.013 7.129c-0.107 0.711 0.622 1.244 1.262 0.924l6.471-3.182c0.231-0.107 0.533-0.107 0.764 0l6.471 3.182c0.64 0.32 1.369-0.213 1.262-0.924l-1.013-7.129c-0.053-0.267 0.036-0.533 0.231-0.747l5.013-5.156c0.498-0.516 0.231-1.369-0.48-1.493l-7.093-1.227c-0.267-0.036-0.498-0.213-0.622-0.462l-3.36-6.364c-0.338-0.622-1.244-0.622-1.582 0z"></path>
<path fill="#ffc531" style="fill: var(--color1, #ffc531)" d="M74.062 9.618l3.36-6.364c0.338-0.622 1.244-0.622 1.582 0l3.36 6.364c0.124 0.249 0.356 0.427 0.622 0.462l7.093 1.227c0.711 0.124 0.978 0.978 0.48 1.493l-5.013 5.156c-0.196 0.213-0.284 0.48-0.231 0.747l1.013 7.129c0.107 0.711-0.622 1.244-1.262 0.924l-6.471-3.182c-0.231-0.107-0.533-0.107-0.764 0l-6.471 3.182c-0.64 0.32-1.369-0.213-1.262-0.924l1.013-7.129c0.053-0.267-0.036-0.533-0.231-0.747l-5.013-5.156c-0.498-0.516-0.231-1.369 0.48-1.493l7.093-1.227c0.267-0.036 0.498-0.213 0.622-0.462zM75.964 10.613c-0.444 0.836-1.244 1.404-2.169 1.564l-4.764 0.836 3.378 3.467c0.658 0.676 0.942 1.6 0.818 2.524l-0.693 4.8 4.356-2.133c0.836-0.427 1.813-0.427 2.667 0l4.338 2.133-0.693-4.8c-0.124-0.924 0.16-1.849 0.818-2.524l3.378-3.467-4.764-0.836c-0.924-0.16-1.724-0.729-2.169-1.564l-2.24-4.267-2.258 4.267z"></path>
<path fill="#ffc531" style="fill: var(--color1, #ffc531)" d="M109.422 3.253l-3.36 6.364c-0.124 0.249-0.356 0.427-0.622 0.462l-7.093 1.227c-0.711 0.124-0.978 0.978-0.48 1.493l5.013 5.156c0.196 0.213 0.284 0.48 0.231 0.747l-1.013 7.129c-0.107 0.711 0.622 1.244 1.262 0.924l6.471-3.182c0.231-0.107 0.533-0.107 0.764 0l6.471 3.182c0.64 0.32 1.369-0.213 1.262-0.924l-1.013-7.129c-0.053-0.267 0.036-0.533 0.231-0.747l5.013-5.156c0.498-0.516 0.231-1.369-0.48-1.493l-7.093-1.227c-0.267-0.036-0.498-0.213-0.622-0.462l-3.36-6.364c-0.338-0.622-1.244-0.622-1.582 0z"></path>
<path fill="#ffc531" style="fill: var(--color1, #ffc531)" d="M106.062 9.618l3.36-6.364c0.338-0.622 1.244-0.622 1.582 0l3.36 6.364c0.124 0.249 0.356 0.427 0.622 0.462l7.093 1.227c0.711 0.124 0.978 0.978 0.48 1.493l-5.013 5.156c-0.196 0.213-0.284 0.48-0.231 0.747l1.013 7.129c0.107 0.711-0.622 1.244-1.262 0.924l-6.471-3.182c-0.231-0.107-0.533-0.107-0.764 0l-6.471 3.182c-0.64 0.32-1.369-0.213-1.262-0.924l1.013-7.129c0.053-0.267-0.036-0.533-0.231-0.747l-5.013-5.156c-0.498-0.516-0.231-1.369 0.48-1.493l7.093-1.227c0.267-0.036 0.498-0.213 0.622-0.462zM107.964 10.613c-0.444 0.836-1.244 1.404-2.169 1.564l-4.764 0.836 3.378 3.467c0.658 0.676 0.942 1.6 0.818 2.524l-0.693 4.8 4.356-2.133c0.836-0.427 1.813-0.427 2.667 0l4.338 2.133-0.693-4.8c-0.124-0.924 0.16-1.849 0.818-2.524l3.378-3.467-4.764-0.836c-0.924-0.16-1.724-0.729-2.169-1.564l-2.24-4.267-2.258 4.267z"></path>
<path fill="#f1f1f1" style="fill: var(--color3, #f1f1f1)" d="M141.422 3.253l-3.36 6.364c-0.124 0.249-0.356 0.427-0.622 0.462l-7.093 1.227c-0.711 0.124-0.978 0.978-0.48 1.493l5.013 5.156c0.196 0.213 0.284 0.48 0.231 0.747l-1.013 7.129c-0.107 0.711 0.622 1.244 1.262 0.924l6.471-3.182c0.231-0.107 0.533-0.107 0.764 0l6.471 3.182c0.64 0.32 1.369-0.213 1.262-0.924l-1.013-7.129c-0.053-0.267 0.036-0.533 0.231-0.747l5.013-5.156c0.498-0.516 0.231-1.369-0.48-1.493l-7.093-1.227c-0.267-0.036-0.498-0.213-0.622-0.462l-3.36-6.364c-0.338-0.622-1.244-0.622-1.582 0z"></path>
<path fill="#f1f1f1" style="fill: var(--color3, #f1f1f1)" d="M138.062 9.618l3.36-6.364c0.338-0.622 1.244-0.622 1.582 0l3.36 6.364c0.124 0.249 0.356 0.427 0.622 0.462l7.093 1.227c0.711 0.124 0.978 0.978 0.48 1.493l-5.013 5.156c-0.196 0.213-0.284 0.48-0.231 0.747l1.013 7.129c0.107 0.711-0.622 1.244-1.262 0.924l-6.471-3.182c-0.231-0.107-0.533-0.107-0.764 0l-6.471 3.182c-0.64 0.32-1.369-0.213-1.262-0.924l1.013-7.129c0.053-0.267-0.036-0.533-0.231-0.747l-5.013-5.156c-0.498-0.516-0.231-1.369 0.48-1.493l7.093-1.227c0.267-0.036 0.498-0.213 0.622-0.462zM139.964 10.613c-0.444 0.836-1.244 1.404-2.169 1.564l-4.764 0.836 3.378 3.467c0.658 0.676 0.942 1.6 0.818 2.524l-0.693 4.8 4.356-2.133c0.836-0.427 1.813-0.427 2.667 0l4.338 2.133-0.693-4.8c-0.124-0.924 0.16-1.849 0.818-2.524l3.378-3.467-4.764-0.836c-0.924-0.16-1.724-0.729-2.169-1.564l-2.24-4.267-2.258 4.267z"></path>
<path fill="#1d1e21" style="fill: var(--color4, #1d1e21)" d="M177.049 21.351h-8.587v-2.204l7.822-12.373h3.36v12.249h2.4v2.329h-2.4v3.538h-2.596v-3.538zM171.324 19.022h5.742v-8.996h-0.142l-5.6 8.853v0.142z"></path>
</symbol>
<symbol id="icon-shopping-cart" viewBox="0 0 32 32">
<path stroke-linejoin="round" stroke-linecap="butt" stroke-miterlimit="4" stroke-width="3" d="M12 29.32c-0.74 0-1.34-0.6-1.34-1.32 0-0.74 0.6-1.34 1.34-1.34s1.32 0.6 1.32 1.34c0 0.72-0.58 1.32-1.32 1.32z"></path>
<path stroke-linejoin="round" stroke-linecap="butt" stroke-miterlimit="4" stroke-width="3" d="M26.66 29.32c-0.74 0-1.34-0.6-1.34-1.32 0-0.74 0.6-1.34 1.34-1.34 0.72 0 1.32 0.6 1.32 1.34 0 0.72-0.6 1.32-1.32 1.32z"></path>
<path stroke-linejoin="round" stroke-linecap="round" stroke-miterlimit="4" stroke-width="3" d="M1.32 1.32h5.34l3.56 17.86c0.12 0.62 0.46 1.16 0.94 1.56 0.5 0.38 1.1 0.6 1.74 0.58h12.96c0.62 0.020 1.22-0.2 1.72-0.58 0.48-0.4 0.82-0.94 0.94-1.56l2.14-11.18h-22.68"></path>
</symbol>
<symbol id="icon-filter" viewBox="0 0 32 32">
<path stroke-linejoin="round" stroke-linecap="butt" stroke-miterlimit="4" stroke-width="3.4286" d="M2.651 4l10.674 12.594v8.731l5.326 2.674v-11.406l10.674-12.594h-26.674z"></path>
</symbol>
<symbol id="icon-search" viewBox="0 0 32 32">
<path stroke-linejoin="round" stroke-linecap="butt" stroke-miterlimit="4" stroke-width="3" d="M14.66 25.32c-5.9 0-10.66-4.78-10.66-10.66 0-5.9 4.76-10.66 10.66-10.66 5.88 0 10.66 4.76 10.66 10.66 0 5.88-4.78 10.66-10.66 10.66z"></path>
<path stroke-linejoin="round" stroke-linecap="round" stroke-miterlimit="4" stroke-width="3" d="M28 28l-5.8-5.82"></path>
</symbol>
<symbol id="icon-lightning" viewBox="0 0 32 32">
<path stroke-linejoin="round" stroke-linecap="butt" stroke-miterlimit="4" stroke-width="2.4" d="M5.456 16.912c-0.464 0.56-0.704 0.832-0.704 1.072 0 0.208 0.080 0.4 0.24 0.528 0.192 0.144 0.544 0.144 1.28 0.144h9.728l-1.344 10.672 11.872-14.256c0.464-0.56 0.704-0.832 0.704-1.072 0-0.208-0.080-0.4-0.24-0.528-0.192-0.144-0.544-0.144-1.28-0.144h-9.712l1.328-10.672-11.872 14.256z"></path>
</symbol>
<symbol id="icon-star" viewBox="0 0 32 32">
<path d="M15.1 1.66l-3.78 7.16c-0.14 0.28-0.4 0.48-0.7 0.52l-7.98 1.38c-0.8 0.14-1.1 1.1-0.54 1.68l5.64 5.8c0.22 0.24 0.32 0.54 0.26 0.84l-1.14 8.020c-0.12 0.8 0.7 1.4 1.42 1.040l7.28-3.58c0.26-0.12 0.6-0.12 0.86 0l7.28 3.58c0.72 0.36 1.54-0.24 1.42-1.040l-1.14-8.020c-0.060-0.3 0.040-0.6 0.26-0.84l5.64-5.8c0.56-0.58 0.26-1.54-0.54-1.68l-7.98-1.38c-0.3-0.040-0.56-0.24-0.7-0.52l-3.78-7.16c-0.38-0.7-1.4-0.7-1.78 0z"></path>
<path d="M11.32 8.82l3.78-7.16c0.38-0.7 1.4-0.7 1.78 0l3.78 7.16c0.14 0.28 0.4 0.48 0.7 0.52l7.98 1.38c0.8 0.14 1.1 1.1 0.54 1.68l-5.64 5.8c-0.22 0.24-0.32 0.54-0.26 0.84l1.14 8.020c0.12 0.8-0.7 1.4-1.42 1.040l-7.28-3.58c-0.26-0.12-0.6-0.12-0.86 0l-7.28 3.58c-0.72 0.36-1.54-0.24-1.42-1.040l1.14-8.020c0.060-0.3-0.040-0.6-0.26-0.84l-5.64-5.8c-0.56-0.58-0.26-1.54 0.54-1.68l7.98-1.38c0.3-0.040 0.56-0.24 0.7-0.52zM13.46 9.94c-0.5 0.94-1.4 1.58-2.44 1.76l-5.36 0.94 3.8 3.9c0.74 0.76 1.060 1.8 0.92 2.84l-0.78 5.4 4.9-2.4c0.94-0.48 2.040-0.48 3 0l4.88 2.4-0.78-5.4c-0.14-1.040 0.18-2.080 0.92-2.84l3.8-3.9-5.36-0.94c-1.040-0.18-1.94-0.82-2.44-1.76l-2.52-4.8-2.54 4.8z"></path>
</symbol>
<symbol id="icon-phone" viewBox="0 0 32 32">
<path stroke-linejoin="round" stroke-linecap="butt" stroke-miterlimit="4" stroke-width="2.6667" d="M29.333 26.56c0 0.356-0.089 0.729-0.231 1.067-0.16 0.338-0.373 0.658-0.64 0.907-0.284 0.249-0.604 0.427-0.942 0.551-0.356 0.124-0.729 0.16-1.102 0.142-4.107-0.462-8.053-1.849-11.502-4.107-3.236-2.044-5.956-4.782-8-8-2.258-3.467-3.662-7.431-4.107-11.556-0.018-0.373 0.018-0.747 0.142-1.084 0.107-0.356 0.302-0.676 0.551-0.96 0.249-0.267 0.551-0.48 0.889-0.64 0.338-0.142 0.711-0.213 1.084-0.213h4c0.64-0.018 1.262 0.213 1.76 0.64 0.48 0.409 0.818 0.996 0.907 1.653 0.16 1.262 0.48 2.524 0.924 3.733 0.178 0.48 0.213 0.996 0.107 1.493s-0.356 0.96-0.711 1.333l-1.689 1.689c1.902 3.342 4.658 6.098 8 8l1.689-1.689c0.373-0.373 0.836-0.622 1.333-0.711 0.48-0.124 1.013-0.071 1.493 0.107 1.209 0.444 2.453 0.764 3.733 0.924 0.658 0.089 1.244 0.427 1.671 0.924s0.64 1.138 0.64 1.796v4z"></path>
</symbol>
<symbol id="icon-map-pin" viewBox="0 0 32 32">
<path stroke-linejoin="round" stroke-linecap="butt" stroke-miterlimit="4" stroke-width="2.6667" d="M16 30.667c0 0-12-8-12-17.333 0-3.2 1.262-6.24 3.502-8.498 2.258-2.24 5.316-3.502 8.498-3.502 3.164 0 6.222 1.262 8.48 3.502 2.24 2.258 3.52 5.298 3.52 8.498 0 9.333-12 17.333-12 17.333z"></path>
<path stroke-linejoin="round" stroke-linecap="butt" stroke-miterlimit="4" stroke-width="2.6667" d="M16 17.333c-2.222 0-4-1.796-4-4 0-2.222 1.778-4 4-4 2.204 0 4 1.778 4 4 0 2.204-1.796 4-4 4z"></path>
</symbol>
<symbol id="icon-youtube" viewBox="0 0 32 32">
<path d="M21.244 9.629c-0.873-0.051-2.647-0.102-5.353-0.102h-0.349c-2.596 0-4.335 0.051-5.193 0.153-1.171 0.102-1.985 0.407-2.444 0.815-0.415 0.356-0.713 1.018-0.815 1.884-0.058 0.56-0.109 1.731-0.109 3.513v0.255c0 1.68 0.051 2.851 0.16 3.411 0.153 0.815 0.4 1.425 0.909 1.782 0.516 0.407 1.375 0.662 2.596 0.764 0.865 0.051 2.647 0.102 5.353 0.102h0.349c2.596 0 4.327-0.051 5.193-0.153 1.171-0.102 1.985-0.407 2.444-0.815 0.415-0.356 0.713-1.018 0.815-1.884 0.051-0.56 0.109-1.731 0.109-3.513v-0.255c0-1.68-0.058-2.851-0.16-3.411-0.153-0.815-0.4-1.425-0.909-1.782-0.516-0.407-1.375-0.662-2.596-0.764zM19.258 15.891l-5.6 3.36v-6.72l5.6 3.36z"></path>
<path stroke-linejoin="miter" stroke-linecap="butt" stroke-miterlimit="4" stroke-width="0.7273" d="M7.273 0.364h17.455c3.816 0 6.909 3.093 6.909 6.909v17.455c0 3.816-3.093 6.909-6.909 6.909h-17.455c-3.816 0-6.909-3.093-6.909-6.909v-17.455c0-3.816 3.093-6.909 6.909-6.909z"></path>
</symbol>
<symbol id="icon-instagram" viewBox="0 0 32 32">
<path d="M24.087 12.662c-0.007-0.684-0.131-1.367-0.378-2.007-0.422-1.091-1.287-1.949-2.378-2.378-0.633-0.233-1.302-0.364-1.978-0.378-0.873-0.036-1.149-0.051-3.353-0.051-2.211 0-2.495 0-3.36 0.051-0.676 0.015-1.345 0.145-1.978 0.378-1.091 0.429-1.956 1.287-2.378 2.378-0.24 0.633-0.371 1.302-0.378 1.978-0.044 0.865-0.051 1.142-0.051 3.345 0 2.211 0 2.495 0.051 3.353 0.015 0.676 0.138 1.345 0.378 1.978 0.422 1.091 1.287 1.956 2.378 2.378 0.633 0.24 1.302 0.385 1.978 0.4 0.873 0.044 1.149 0.058 3.36 0.058 2.204 0 2.487 0 3.353-0.058 0.676-0.007 1.345-0.138 1.978-0.371 1.091-0.429 1.956-1.287 2.378-2.385 0.24-0.625 0.371-1.295 0.385-1.971 0.036-0.873 0.044-1.142 0.044-3.353 0-2.204 0-2.487-0.051-3.345zM15.993 20.153c-2.313 0-4.182-1.869-4.182-4.175s1.869-4.175 4.182-4.175c2.305 0 4.182 1.869 4.182 4.175s-1.876 4.175-4.182 4.175zM20.342 12.618c-0.538 0-0.982-0.429-0.982-0.967s0.444-0.975 0.982-0.975c0.538 0 0.975 0.436 0.975 0.975s-0.436 0.967-0.975 0.967z"></path>
<path d="M18.538 15.978c0 1.411-1.142 2.545-2.545 2.545-1.411 0-2.553-1.135-2.553-2.545 0-1.404 1.142-2.545 2.553-2.545 1.404 0 2.545 1.142 2.545 2.545z"></path>
<path stroke-linejoin="miter" stroke-linecap="butt" stroke-miterlimit="4" stroke-width="0.7273" d="M7.273 0.364h17.455c3.816 0 6.909 3.093 6.909 6.909v17.455c0 3.816-3.093 6.909-6.909 6.909h-17.455c-3.816 0-6.909-3.093-6.909-6.909v-17.455c0-3.816 3.093-6.909 6.909-6.909z"></path>
</symbol>
<symbol id="icon-facebook" viewBox="0 0 32 32">
<path d="M18.233 8.771c0.153 0 0.313 0 0.611 0v2.291c-0.153 0-0.458 0-0.764 0s-0.611 0-0.756 0.145c-0.16 0.153-0.16 0.305-0.16 0.669 0 0.305 0 0.509 0 0.815h1.68v1.935h-1.68v8.4h-2.596v-8.451h-1.375v-1.942h1.375v-0.655c0-1.12 0.16-1.935 0.458-2.291 0.458-0.662 1.375-0.967 2.749-0.967 0.16 0.051 0.305 0.051 0.458 0.051z"></path>
<path stroke-linejoin="miter" stroke-linecap="butt" stroke-miterlimit="4" stroke-width="0.7273" d="M7.273 0.364h17.455c3.816 0 6.909 3.093 6.909 6.909v17.455c0 3.816-3.093 6.909-6.909 6.909h-17.455c-3.816 0-6.909-3.093-6.909-6.909v-17.455c0-3.816 3.093-6.909 6.909-6.909z"></path>
</symbol>
</defs>
</svg>
